<mxfile host="Electron" modified="2024-03-21T03:52:23.083Z" agent="Mozilla/5.0 (Windows NT 10.0; Win64; x64) AppleWebKit/537.36 (KHTML, like Gecko) draw.io/23.1.5 Chrome/120.0.6099.109 Electron/28.1.0 Safari/537.36" etag="OW-WVkoIAZENFPac96r5" version="23.1.5" type="device" pages="2">
  <diagram name="Page-1" id="KSedjzggh9fZHc0mvvtb">
    <mxGraphModel dx="1262" dy="303" grid="1" gridSize="10" guides="1" tooltips="1" connect="1" arrows="1" fold="1" page="0" pageScale="1" pageWidth="850" pageHeight="1100" math="0" shadow="0">
      <root>
        <mxCell id="0" />
        <mxCell id="1" parent="0" />
        <mxCell id="jV2bfIBwks5GDoXjJ66l-15" value="" style="rounded=0;whiteSpace=wrap;html=1;rotation=-90;strokeWidth=2;" parent="1" vertex="1">
          <mxGeometry x="712.16" y="412.36" width="414.13" height="518.43" as="geometry" />
        </mxCell>
        <mxCell id="jV2bfIBwks5GDoXjJ66l-31" value="" style="rounded=0;whiteSpace=wrap;html=1;strokeWidth=2;" parent="1" vertex="1">
          <mxGeometry x="692.01" y="670" width="267.99" height="160" as="geometry" />
        </mxCell>
        <mxCell id="jV2bfIBwks5GDoXjJ66l-48" value="" style="edgeStyle=orthogonalEdgeStyle;rounded=0;orthogonalLoop=1;jettySize=auto;html=1;entryX=0.723;entryY=0.001;entryDx=0;entryDy=0;entryPerimeter=0;" parent="1" source="jV2bfIBwks5GDoXjJ66l-16" target="jV2bfIBwks5GDoXjJ66l-31" edge="1">
          <mxGeometry relative="1" as="geometry">
            <Array as="points">
              <mxPoint x="886" y="590" />
              <mxPoint x="886" y="630" />
            </Array>
          </mxGeometry>
        </mxCell>
        <mxCell id="jV2bfIBwks5GDoXjJ66l-16" value="" style="rounded=0;whiteSpace=wrap;html=1;strokeWidth=2;" parent="1" vertex="1">
          <mxGeometry x="707.5" y="490" width="190" height="110" as="geometry" />
        </mxCell>
        <mxCell id="jV2bfIBwks5GDoXjJ66l-18" value="&lt;font style=&quot;font-size: 13px;&quot;&gt;&lt;b&gt;UART_boot.sv&lt;/b&gt;&lt;/font&gt;" style="text;html=1;align=center;verticalAlign=middle;whiteSpace=wrap;rounded=0;" parent="1" vertex="1">
          <mxGeometry x="730" y="500" width="60" height="30" as="geometry" />
        </mxCell>
        <mxCell id="jV2bfIBwks5GDoXjJ66l-23" value="&lt;b&gt;&lt;font style=&quot;font-size: 16px;&quot;&gt;FPGA&lt;/font&gt;&lt;/b&gt;" style="text;html=1;align=center;verticalAlign=middle;whiteSpace=wrap;rounded=0;" parent="1" vertex="1">
          <mxGeometry x="1100" y="490" width="60" height="30" as="geometry" />
        </mxCell>
        <mxCell id="jV2bfIBwks5GDoXjJ66l-33" value="&lt;b&gt;Instr.hex&lt;/b&gt;" style="rounded=0;whiteSpace=wrap;html=1;strokeWidth=2;" parent="1" vertex="1">
          <mxGeometry x="720" y="790" width="80" height="30" as="geometry" />
        </mxCell>
        <mxCell id="jV2bfIBwks5GDoXjJ66l-17" value="&lt;b&gt;UART_rx&lt;/b&gt;" style="rounded=0;whiteSpace=wrap;html=1;strokeWidth=2;" parent="1" vertex="1">
          <mxGeometry x="720" y="540" width="80" height="50" as="geometry" />
        </mxCell>
        <mxCell id="jV2bfIBwks5GDoXjJ66l-43" value="" style="group" parent="1" vertex="1" connectable="0">
          <mxGeometry x="805" y="610" width="16" height="25" as="geometry" />
        </mxCell>
        <mxCell id="jV2bfIBwks5GDoXjJ66l-42" value="waddr" style="text;html=1;align=center;verticalAlign=middle;whiteSpace=wrap;rounded=0;" parent="jV2bfIBwks5GDoXjJ66l-43" vertex="1">
          <mxGeometry x="9.846153846153847" y="3.5714285714285716" width="6.153846153846154" height="21.42857142857143" as="geometry" />
        </mxCell>
        <mxCell id="jV2bfIBwks5GDoXjJ66l-46" style="edgeStyle=orthogonalEdgeStyle;rounded=0;orthogonalLoop=1;jettySize=auto;html=1;entryX=0.116;entryY=-0.028;entryDx=0;entryDy=0;entryPerimeter=0;" parent="1" source="jV2bfIBwks5GDoXjJ66l-16" target="jV2bfIBwks5GDoXjJ66l-31" edge="1">
          <mxGeometry relative="1" as="geometry">
            <Array as="points">
              <mxPoint x="723" y="620" />
              <mxPoint x="723" y="620" />
            </Array>
          </mxGeometry>
        </mxCell>
        <mxCell id="jV2bfIBwks5GDoXjJ66l-47" value="wdata" style="text;html=1;align=center;verticalAlign=middle;whiteSpace=wrap;rounded=0;" parent="1" vertex="1">
          <mxGeometry x="690" y="610" width="30" height="30" as="geometry" />
        </mxCell>
        <mxCell id="jV2bfIBwks5GDoXjJ66l-41" style="edgeStyle=orthogonalEdgeStyle;rounded=0;orthogonalLoop=1;jettySize=auto;html=1;entryX=0.551;entryY=-0.011;entryDx=0;entryDy=0;entryPerimeter=0;" parent="1" source="jV2bfIBwks5GDoXjJ66l-16" target="jV2bfIBwks5GDoXjJ66l-31" edge="1">
          <mxGeometry relative="1" as="geometry">
            <mxPoint x="840" y="650" as="targetPoint" />
            <Array as="points">
              <mxPoint x="840" y="630" />
            </Array>
          </mxGeometry>
        </mxCell>
        <mxCell id="jV2bfIBwks5GDoXjJ66l-49" value="dst" style="text;html=1;align=center;verticalAlign=middle;whiteSpace=wrap;rounded=0;" parent="1" vertex="1">
          <mxGeometry x="860" y="617.5" width="20" height="15" as="geometry" />
        </mxCell>
        <mxCell id="jV2bfIBwks5GDoXjJ66l-32" value="&lt;b&gt;&lt;font style=&quot;font-size: 14px;&quot;&gt;CPU.v&lt;/font&gt;&lt;/b&gt;" style="text;html=1;align=center;verticalAlign=middle;whiteSpace=wrap;rounded=0;" parent="1" vertex="1">
          <mxGeometry x="900" y="670" width="60" height="30" as="geometry" />
        </mxCell>
        <mxCell id="jV2bfIBwks5GDoXjJ66l-19" value="&lt;b&gt;im.sv&lt;/b&gt;" style="rounded=0;whiteSpace=wrap;html=1;strokeWidth=2;" parent="1" vertex="1">
          <mxGeometry x="707.5" y="700" width="105" height="70" as="geometry" />
        </mxCell>
        <mxCell id="jV2bfIBwks5GDoXjJ66l-71" value="&lt;b&gt;dm.sv&lt;/b&gt;" style="rounded=0;whiteSpace=wrap;html=1;strokeWidth=2;" parent="1" vertex="1">
          <mxGeometry x="830" y="700" width="100" height="70" as="geometry" />
        </mxCell>
        <mxCell id="jV2bfIBwks5GDoXjJ66l-77" value="" style="endArrow=classic;html=1;rounded=0;exitX=0.5;exitY=0;exitDx=0;exitDy=0;entryX=0.5;entryY=1;entryDx=0;entryDy=0;" parent="1" source="jV2bfIBwks5GDoXjJ66l-33" target="jV2bfIBwks5GDoXjJ66l-19" edge="1">
          <mxGeometry width="50" height="50" relative="1" as="geometry">
            <mxPoint x="700" y="780" as="sourcePoint" />
            <mxPoint x="750" y="730" as="targetPoint" />
          </mxGeometry>
        </mxCell>
        <mxCell id="jV2bfIBwks5GDoXjJ66l-78" value="" style="group" parent="1" vertex="1" connectable="0">
          <mxGeometry x="340" y="600" width="280" height="280" as="geometry" />
        </mxCell>
        <mxCell id="jV2bfIBwks5GDoXjJ66l-1" value="" style="whiteSpace=wrap;html=1;aspect=fixed;strokeWidth=2;" parent="jV2bfIBwks5GDoXjJ66l-78" vertex="1">
          <mxGeometry width="280" height="280" as="geometry" />
        </mxCell>
        <mxCell id="jV2bfIBwks5GDoXjJ66l-2" value="UART_Boot load.py" style="rounded=0;whiteSpace=wrap;html=1;strokeWidth=2;" parent="jV2bfIBwks5GDoXjJ66l-78" vertex="1">
          <mxGeometry x="20" y="20" width="120" height="60" as="geometry" />
        </mxCell>
        <mxCell id="jV2bfIBwks5GDoXjJ66l-5" value="COM&lt;div&gt;port&lt;/div&gt;" style="whiteSpace=wrap;html=1;aspect=fixed;strokeWidth=2;" parent="jV2bfIBwks5GDoXjJ66l-78" vertex="1">
          <mxGeometry x="200" y="20" width="60" height="60" as="geometry" />
        </mxCell>
        <mxCell id="jV2bfIBwks5GDoXjJ66l-11" style="edgeStyle=orthogonalEdgeStyle;rounded=0;orthogonalLoop=1;jettySize=auto;html=1;exitX=1;exitY=0.5;exitDx=0;exitDy=0;entryX=0;entryY=0.5;entryDx=0;entryDy=0;" parent="jV2bfIBwks5GDoXjJ66l-78" source="jV2bfIBwks5GDoXjJ66l-2" target="jV2bfIBwks5GDoXjJ66l-5" edge="1">
          <mxGeometry relative="1" as="geometry" />
        </mxCell>
        <mxCell id="jV2bfIBwks5GDoXjJ66l-7" style="edgeStyle=orthogonalEdgeStyle;rounded=0;orthogonalLoop=1;jettySize=auto;html=1;exitX=0.5;exitY=0;exitDx=0;exitDy=0;entryX=0.5;entryY=1;entryDx=0;entryDy=0;" parent="jV2bfIBwks5GDoXjJ66l-78" source="jV2bfIBwks5GDoXjJ66l-6" target="jV2bfIBwks5GDoXjJ66l-2" edge="1">
          <mxGeometry relative="1" as="geometry" />
        </mxCell>
        <mxCell id="jV2bfIBwks5GDoXjJ66l-6" value="&lt;u&gt;Myapp.hex&lt;/u&gt;&lt;div&gt;1234ABCD&lt;/div&gt;&lt;div&gt;DEADBEEF&lt;/div&gt;&lt;div&gt;FEC123AB&lt;/div&gt;" style="whiteSpace=wrap;html=1;aspect=fixed;strokeWidth=2;" parent="jV2bfIBwks5GDoXjJ66l-78" vertex="1">
          <mxGeometry x="40" y="110" width="80" height="80" as="geometry" />
        </mxCell>
        <mxCell id="jV2bfIBwks5GDoXjJ66l-10" style="edgeStyle=orthogonalEdgeStyle;rounded=0;orthogonalLoop=1;jettySize=auto;html=1;exitX=0.5;exitY=0;exitDx=0;exitDy=0;entryX=0.5;entryY=1;entryDx=0;entryDy=0;" parent="jV2bfIBwks5GDoXjJ66l-78" source="jV2bfIBwks5GDoXjJ66l-9" target="jV2bfIBwks5GDoXjJ66l-6" edge="1">
          <mxGeometry relative="1" as="geometry" />
        </mxCell>
        <mxCell id="jV2bfIBwks5GDoXjJ66l-9" value="C compiler&lt;div&gt;or assembler&lt;/div&gt;" style="rounded=0;whiteSpace=wrap;html=1;strokeWidth=2;" parent="jV2bfIBwks5GDoXjJ66l-78" vertex="1">
          <mxGeometry x="25" y="210" width="105" height="50" as="geometry" />
        </mxCell>
        <mxCell id="jV2bfIBwks5GDoXjJ66l-12" value="&lt;p style=&quot;line-height: 120%;&quot;&gt;&lt;font style=&quot;font-size: 22px;&quot;&gt;Windows&lt;/font&gt;&lt;/p&gt;" style="text;html=1;align=center;verticalAlign=middle;whiteSpace=wrap;rounded=0;" parent="jV2bfIBwks5GDoXjJ66l-78" vertex="1">
          <mxGeometry x="170" y="170" width="60" height="30" as="geometry" />
        </mxCell>
        <mxCell id="Bwl6HqEeVeiqjp-330Ui-2" value="" style="rounded=0;whiteSpace=wrap;html=1;strokeWidth=2;" parent="1" vertex="1">
          <mxGeometry x="990" y="670" width="120" height="160" as="geometry" />
        </mxCell>
        <mxCell id="Bwl6HqEeVeiqjp-330Ui-3" value="&lt;b&gt;&lt;font style=&quot;font-size: 13px;&quot;&gt;image buffer&lt;/font&gt;&lt;/b&gt;" style="text;html=1;align=center;verticalAlign=middle;whiteSpace=wrap;rounded=0;" parent="1" vertex="1">
          <mxGeometry x="1005" y="725" width="90" height="30" as="geometry" />
        </mxCell>
        <mxCell id="Bwl6HqEeVeiqjp-330Ui-4" value="" style="endArrow=classic;html=1;rounded=0;entryX=0.936;entryY=0.006;entryDx=0;entryDy=0;entryPerimeter=0;" parent="1" target="Bwl6HqEeVeiqjp-330Ui-2" edge="1">
          <mxGeometry width="50" height="50" relative="1" as="geometry">
            <mxPoint x="890" y="630" as="sourcePoint" />
            <mxPoint x="930" y="630" as="targetPoint" />
            <Array as="points">
              <mxPoint x="1102" y="630" />
            </Array>
          </mxGeometry>
        </mxCell>
        <mxCell id="Bwl6HqEeVeiqjp-330Ui-5" value="" style="endArrow=classic;html=1;rounded=0;entryX=0.75;entryY=0;entryDx=0;entryDy=0;" parent="1" target="Bwl6HqEeVeiqjp-330Ui-2" edge="1">
          <mxGeometry width="50" height="50" relative="1" as="geometry">
            <mxPoint x="840" y="640" as="sourcePoint" />
            <mxPoint x="930" y="670" as="targetPoint" />
            <Array as="points">
              <mxPoint x="1080" y="640" />
            </Array>
          </mxGeometry>
        </mxCell>
        <mxCell id="Bwl6HqEeVeiqjp-330Ui-6" value="" style="endArrow=classic;html=1;rounded=0;entryX=0.5;entryY=0;entryDx=0;entryDy=0;exitX=0;exitY=0.75;exitDx=0;exitDy=0;" parent="1" source="Bwl6HqEeVeiqjp-330Ui-9" target="Bwl6HqEeVeiqjp-330Ui-2" edge="1">
          <mxGeometry width="50" height="50" relative="1" as="geometry">
            <mxPoint x="770" y="650" as="sourcePoint" />
            <mxPoint x="930" y="670" as="targetPoint" />
            <Array as="points">
              <mxPoint x="1050" y="650" />
            </Array>
          </mxGeometry>
        </mxCell>
        <mxCell id="Bwl6HqEeVeiqjp-330Ui-7" value="" style="endArrow=classic;html=1;rounded=0;exitX=1.183;exitY=-0.012;exitDx=0;exitDy=0;exitPerimeter=0;entryX=0.25;entryY=0;entryDx=0;entryDy=0;" parent="1" source="jV2bfIBwks5GDoXjJ66l-47" target="Bwl6HqEeVeiqjp-330Ui-2" edge="1">
          <mxGeometry width="50" height="50" relative="1" as="geometry">
            <mxPoint x="730" y="650" as="sourcePoint" />
            <mxPoint x="930" y="670" as="targetPoint" />
            <Array as="points">
              <mxPoint x="1020" y="610" />
            </Array>
          </mxGeometry>
        </mxCell>
        <mxCell id="Bwl6HqEeVeiqjp-330Ui-8" value="" style="endArrow=classic;html=1;rounded=0;" parent="1" edge="1">
          <mxGeometry width="50" height="50" relative="1" as="geometry">
            <mxPoint x="800" y="600" as="sourcePoint" />
            <mxPoint x="799" y="668" as="targetPoint" />
          </mxGeometry>
        </mxCell>
        <mxCell id="Bwl6HqEeVeiqjp-330Ui-9" value="done" style="text;html=1;align=center;verticalAlign=middle;whiteSpace=wrap;rounded=0;" parent="1" vertex="1">
          <mxGeometry x="760" y="635" width="40" height="20" as="geometry" />
        </mxCell>
        <mxCell id="Bwl6HqEeVeiqjp-330Ui-11" value="" style="group" parent="1" vertex="1" connectable="0">
          <mxGeometry x="740" y="615" width="20" height="20" as="geometry" />
        </mxCell>
        <mxCell id="jV2bfIBwks5GDoXjJ66l-38" style="edgeStyle=orthogonalEdgeStyle;rounded=0;orthogonalLoop=1;jettySize=auto;html=1;entryX=0.289;entryY=-0.022;entryDx=0;entryDy=0;entryPerimeter=0;" parent="Bwl6HqEeVeiqjp-330Ui-11" source="jV2bfIBwks5GDoXjJ66l-16" target="jV2bfIBwks5GDoXjJ66l-31" edge="1">
          <mxGeometry relative="1" as="geometry">
            <Array as="points">
              <mxPoint x="20" y="20" />
              <mxPoint x="20" y="20" />
            </Array>
          </mxGeometry>
        </mxCell>
        <mxCell id="jV2bfIBwks5GDoXjJ66l-39" value="we" style="text;html=1;align=center;verticalAlign=middle;whiteSpace=wrap;rounded=0;" parent="Bwl6HqEeVeiqjp-330Ui-11" vertex="1">
          <mxGeometry width="20" height="20" as="geometry" />
        </mxCell>
        <mxCell id="Bwl6HqEeVeiqjp-330Ui-12" value="" style="endArrow=classic;html=1;rounded=0;exitX=0.995;exitY=0.629;exitDx=0;exitDy=0;exitPerimeter=0;entryX=0.75;entryY=0;entryDx=0;entryDy=0;" parent="1" source="jV2bfIBwks5GDoXjJ66l-16" target="jV2bfIBwks5GDoXjJ66l-32" edge="1">
          <mxGeometry width="50" height="50" relative="1" as="geometry">
            <mxPoint x="890" y="630" as="sourcePoint" />
            <mxPoint x="940" y="580" as="targetPoint" />
            <Array as="points">
              <mxPoint x="945" y="560" />
            </Array>
          </mxGeometry>
        </mxCell>
        <mxCell id="Bwl6HqEeVeiqjp-330Ui-13" value="" style="endArrow=classic;html=1;rounded=0;entryX=0.107;entryY=0.006;entryDx=0;entryDy=0;entryPerimeter=0;" parent="1" target="Bwl6HqEeVeiqjp-330Ui-2" edge="1">
          <mxGeometry width="50" height="50" relative="1" as="geometry">
            <mxPoint x="940" y="560" as="sourcePoint" />
            <mxPoint x="940" y="580" as="targetPoint" />
            <Array as="points">
              <mxPoint x="1000" y="560" />
            </Array>
          </mxGeometry>
        </mxCell>
        <mxCell id="Bwl6HqEeVeiqjp-330Ui-14" value="bootloading" style="text;html=1;align=center;verticalAlign=middle;whiteSpace=wrap;rounded=0;" parent="1" vertex="1">
          <mxGeometry x="920" y="540" width="60" height="30" as="geometry" />
        </mxCell>
        <mxCell id="Bwl6HqEeVeiqjp-330Ui-15" value="" style="endArrow=classic;html=1;rounded=0;exitX=1;exitY=0;exitDx=0;exitDy=0;entryX=0;entryY=0;entryDx=0;entryDy=0;" parent="1" source="Bwl6HqEeVeiqjp-330Ui-9" target="Bwl6HqEeVeiqjp-330Ui-2" edge="1">
          <mxGeometry width="50" height="50" relative="1" as="geometry">
            <mxPoint x="850" y="670" as="sourcePoint" />
            <mxPoint x="900" y="620" as="targetPoint" />
            <Array as="points">
              <mxPoint x="990" y="635" />
            </Array>
          </mxGeometry>
        </mxCell>
      </root>
    </mxGraphModel>
  </diagram>
  <diagram name="Copy of Page-1" id="CN2TwgBAp79YJ8FSvy7d">
    <mxGraphModel dx="1485" dy="427" grid="1" gridSize="10" guides="1" tooltips="1" connect="1" arrows="1" fold="1" page="0" pageScale="1" pageWidth="850" pageHeight="1100" math="0" shadow="0">
      <root>
        <mxCell id="GGe_pN6VBzHJLRoy8eTQ-0" />
        <mxCell id="GGe_pN6VBzHJLRoy8eTQ-1" parent="GGe_pN6VBzHJLRoy8eTQ-0" />
        <mxCell id="GGe_pN6VBzHJLRoy8eTQ-2" value="" style="rounded=0;whiteSpace=wrap;html=1;rotation=-90;strokeWidth=5;" parent="GGe_pN6VBzHJLRoy8eTQ-1" vertex="1">
          <mxGeometry x="732.02" y="456.44" width="497.84" height="461.85" as="geometry" />
        </mxCell>
        <mxCell id="GGe_pN6VBzHJLRoy8eTQ-3" value="" style="rounded=0;whiteSpace=wrap;html=1;strokeWidth=3;" parent="GGe_pN6VBzHJLRoy8eTQ-1" vertex="1">
          <mxGeometry x="770" y="750" width="267.99" height="160" as="geometry" />
        </mxCell>
        <mxCell id="i2IiANxSz9852Xo-MV7k-2" style="edgeStyle=orthogonalEdgeStyle;rounded=0;orthogonalLoop=1;jettySize=auto;html=1;exitX=0.265;exitY=1.004;exitDx=0;exitDy=0;entryX=0.25;entryY=0;entryDx=0;entryDy=0;strokeWidth=3;exitPerimeter=0;" parent="GGe_pN6VBzHJLRoy8eTQ-1" edge="1">
          <mxGeometry relative="1" as="geometry">
            <mxPoint x="810.2299999999999" y="570" as="sourcePoint" />
            <mxPoint x="809.9975" y="749.23" as="targetPoint" />
            <Array as="points" />
          </mxGeometry>
        </mxCell>
        <mxCell id="GGe_pN6VBzHJLRoy8eTQ-5" value="" style="rounded=0;whiteSpace=wrap;html=1;strokeWidth=3;" parent="GGe_pN6VBzHJLRoy8eTQ-1" vertex="1">
          <mxGeometry x="770" y="460" width="190" height="110" as="geometry" />
        </mxCell>
        <mxCell id="GGe_pN6VBzHJLRoy8eTQ-6" value="&lt;font size=&quot;1&quot; style=&quot;&quot;&gt;&lt;b style=&quot;font-size: 20px;&quot;&gt;UART_boot.sv&lt;/b&gt;&lt;/font&gt;" style="text;html=1;align=center;verticalAlign=middle;whiteSpace=wrap;rounded=0;" parent="GGe_pN6VBzHJLRoy8eTQ-1" vertex="1">
          <mxGeometry x="802.5" y="470" width="90" height="30" as="geometry" />
        </mxCell>
        <mxCell id="GGe_pN6VBzHJLRoy8eTQ-7" value="&lt;b&gt;&lt;font style=&quot;font-size: 25px;&quot;&gt;FPGA&lt;/font&gt;&lt;/b&gt;" style="text;html=1;align=center;verticalAlign=middle;whiteSpace=wrap;rounded=0;" parent="GGe_pN6VBzHJLRoy8eTQ-1" vertex="1">
          <mxGeometry x="1100" y="440" width="110" height="70" as="geometry" />
        </mxCell>
        <mxCell id="GGe_pN6VBzHJLRoy8eTQ-8" value="&lt;b&gt;Instr.hex&lt;/b&gt;" style="rounded=0;whiteSpace=wrap;html=1;strokeWidth=3;" parent="GGe_pN6VBzHJLRoy8eTQ-1" vertex="1">
          <mxGeometry x="797.99" y="870" width="80" height="30" as="geometry" />
        </mxCell>
        <mxCell id="GGe_pN6VBzHJLRoy8eTQ-9" value="&lt;b&gt;&lt;font style=&quot;font-size: 20px;&quot;&gt;UART_rx&lt;/font&gt;&lt;/b&gt;" style="rounded=0;whiteSpace=wrap;html=1;strokeWidth=3;" parent="GGe_pN6VBzHJLRoy8eTQ-1" vertex="1">
          <mxGeometry x="782.5" y="510" width="90" height="50" as="geometry" />
        </mxCell>
        <mxCell id="GGe_pN6VBzHJLRoy8eTQ-15" value="&lt;font style=&quot;font-size: 20px;&quot;&gt;dest[1:0]&lt;/font&gt;" style="text;html=1;align=center;verticalAlign=middle;whiteSpace=wrap;rounded=0;rotation=-90;" parent="GGe_pN6VBzHJLRoy8eTQ-1" vertex="1">
          <mxGeometry x="786.25" y="609.25" width="80.57" height="15" as="geometry" />
        </mxCell>
        <mxCell id="GGe_pN6VBzHJLRoy8eTQ-16" value="&lt;b&gt;&lt;font style=&quot;font-size: 20px;&quot;&gt;CPU&lt;/font&gt;&lt;/b&gt;" style="text;html=1;align=center;verticalAlign=middle;whiteSpace=wrap;rounded=0;" parent="GGe_pN6VBzHJLRoy8eTQ-1" vertex="1">
          <mxGeometry x="967.99" y="750" width="70" height="30" as="geometry" />
        </mxCell>
        <mxCell id="GGe_pN6VBzHJLRoy8eTQ-17" value="&lt;b&gt;&lt;font style=&quot;font-size: 20px;&quot;&gt;I-MEM&lt;/font&gt;&lt;/b&gt;" style="rounded=0;whiteSpace=wrap;html=1;strokeWidth=3;" parent="GGe_pN6VBzHJLRoy8eTQ-1" vertex="1">
          <mxGeometry x="785.49" y="780" width="105" height="70" as="geometry" />
        </mxCell>
        <mxCell id="GGe_pN6VBzHJLRoy8eTQ-18" value="&lt;b style=&quot;border-color: var(--border-color);&quot;&gt;&lt;font style=&quot;border-color: var(--border-color); font-size: 20px;&quot;&gt;D-MEM&lt;/font&gt;&lt;/b&gt;" style="rounded=0;whiteSpace=wrap;html=1;strokeWidth=3;" parent="GGe_pN6VBzHJLRoy8eTQ-1" vertex="1">
          <mxGeometry x="907.99" y="780" width="100" height="70" as="geometry" />
        </mxCell>
        <mxCell id="GGe_pN6VBzHJLRoy8eTQ-19" value="" style="endArrow=classic;html=1;rounded=0;exitX=0.5;exitY=0;exitDx=0;exitDy=0;entryX=0.5;entryY=1;entryDx=0;entryDy=0;" parent="GGe_pN6VBzHJLRoy8eTQ-1" source="GGe_pN6VBzHJLRoy8eTQ-8" target="GGe_pN6VBzHJLRoy8eTQ-17" edge="1">
          <mxGeometry width="50" height="50" relative="1" as="geometry">
            <mxPoint x="777.99" y="860" as="sourcePoint" />
            <mxPoint x="827.99" y="810" as="targetPoint" />
          </mxGeometry>
        </mxCell>
        <mxCell id="GGe_pN6VBzHJLRoy8eTQ-30" value="" style="rounded=0;whiteSpace=wrap;html=1;strokeWidth=3;" parent="GGe_pN6VBzHJLRoy8eTQ-1" vertex="1">
          <mxGeometry x="1067.99" y="750" width="120" height="160" as="geometry" />
        </mxCell>
        <mxCell id="GGe_pN6VBzHJLRoy8eTQ-31" value="&lt;b&gt;&lt;font style=&quot;font-size: 20px;&quot;&gt;Image Buffer&lt;/font&gt;&lt;/b&gt;" style="text;html=1;align=center;verticalAlign=middle;whiteSpace=wrap;rounded=0;strokeWidth=3;" parent="GGe_pN6VBzHJLRoy8eTQ-1" vertex="1">
          <mxGeometry x="1082.99" y="805" width="90" height="30" as="geometry" />
        </mxCell>
        <mxCell id="GGe_pN6VBzHJLRoy8eTQ-38" value="" style="group;rotation=-90;" parent="GGe_pN6VBzHJLRoy8eTQ-1" vertex="1" connectable="0">
          <mxGeometry x="782.5" y="581" width="25" height="20" as="geometry" />
        </mxCell>
        <mxCell id="GGe_pN6VBzHJLRoy8eTQ-40" value="&lt;font style=&quot;font-size: 20px;&quot;&gt;we&lt;/font&gt;" style="text;html=1;align=center;verticalAlign=middle;whiteSpace=wrap;rounded=0;rotation=-90;" parent="GGe_pN6VBzHJLRoy8eTQ-38" vertex="1">
          <mxGeometry width="25" height="20" as="geometry" />
        </mxCell>
        <mxCell id="GGe_pN6VBzHJLRoy8eTQ-43" value="&lt;font style=&quot;font-size: 20px;&quot;&gt;bootloading&lt;/font&gt;" style="text;html=1;align=center;verticalAlign=middle;whiteSpace=wrap;rounded=0;rotation=-90;" parent="GGe_pN6VBzHJLRoy8eTQ-1" vertex="1">
          <mxGeometry x="864" y="613" width="103" height="30" as="geometry" />
        </mxCell>
        <mxCell id="J8BOU5IXxztuKc8s6rJS-4" value="" style="group" parent="GGe_pN6VBzHJLRoy8eTQ-1" vertex="1" connectable="0">
          <mxGeometry x="290" y="435" width="352.15000000000003" height="500" as="geometry" />
        </mxCell>
        <mxCell id="J8BOU5IXxztuKc8s6rJS-3" value="" style="rounded=0;whiteSpace=wrap;html=1;strokeWidth=5;" parent="J8BOU5IXxztuKc8s6rJS-4" vertex="1">
          <mxGeometry width="350" height="500" as="geometry" />
        </mxCell>
        <mxCell id="GGe_pN6VBzHJLRoy8eTQ-22" value="&lt;font style=&quot;font-size: 20px;&quot;&gt;UART_Boot.py&lt;/font&gt;" style="rounded=0;whiteSpace=wrap;html=1;strokeWidth=3;container=0;" parent="J8BOU5IXxztuKc8s6rJS-4" vertex="1">
          <mxGeometry x="24.285714285714278" y="24.285714285714334" width="145.7142857142857" height="72.85714285714285" as="geometry" />
        </mxCell>
        <mxCell id="GGe_pN6VBzHJLRoy8eTQ-23" value="&lt;font style=&quot;font-size: 20px;&quot;&gt;COM&lt;/font&gt;&lt;div style=&quot;font-size: 20px;&quot;&gt;&lt;font style=&quot;font-size: 20px;&quot;&gt;Port&lt;/font&gt;&lt;/div&gt;" style="whiteSpace=wrap;html=1;aspect=fixed;strokeWidth=3;container=0;" parent="J8BOU5IXxztuKc8s6rJS-4" vertex="1">
          <mxGeometry x="242.85714285714283" y="24.285714285714334" width="72.85714285714285" height="72.85714285714285" as="geometry" />
        </mxCell>
        <mxCell id="GGe_pN6VBzHJLRoy8eTQ-24" style="edgeStyle=orthogonalEdgeStyle;rounded=0;orthogonalLoop=1;jettySize=auto;html=1;exitX=1;exitY=0.5;exitDx=0;exitDy=0;entryX=0;entryY=0.5;entryDx=0;entryDy=0;strokeWidth=3;" parent="J8BOU5IXxztuKc8s6rJS-4" source="GGe_pN6VBzHJLRoy8eTQ-22" target="GGe_pN6VBzHJLRoy8eTQ-23" edge="1">
          <mxGeometry relative="1" as="geometry" />
        </mxCell>
        <mxCell id="GGe_pN6VBzHJLRoy8eTQ-25" style="edgeStyle=orthogonalEdgeStyle;rounded=0;orthogonalLoop=1;jettySize=auto;html=1;exitX=0.5;exitY=0;exitDx=0;exitDy=0;entryX=0.5;entryY=1;entryDx=0;entryDy=0;strokeWidth=3;" parent="J8BOU5IXxztuKc8s6rJS-4" source="GGe_pN6VBzHJLRoy8eTQ-26" target="GGe_pN6VBzHJLRoy8eTQ-22" edge="1">
          <mxGeometry relative="1" as="geometry" />
        </mxCell>
        <mxCell id="GGe_pN6VBzHJLRoy8eTQ-26" value="&lt;u style=&quot;font-size: 20px;&quot;&gt;&lt;font style=&quot;font-size: 20px;&quot;&gt;Myapp.hex&lt;/font&gt;&lt;/u&gt;&lt;div style=&quot;font-size: 20px;&quot;&gt;&lt;font style=&quot;font-size: 20px;&quot;&gt;1234ABCD&lt;/font&gt;&lt;/div&gt;&lt;div style=&quot;font-size: 20px;&quot;&gt;&lt;font style=&quot;font-size: 20px;&quot;&gt;DEADBEEF&lt;/font&gt;&lt;/div&gt;&lt;div style=&quot;font-size: 20px;&quot;&gt;&lt;font style=&quot;font-size: 20px;&quot;&gt;FEC123AB&lt;/font&gt;&lt;/div&gt;" style="whiteSpace=wrap;html=1;aspect=fixed;strokeWidth=3;container=0;" parent="J8BOU5IXxztuKc8s6rJS-4" vertex="1">
          <mxGeometry x="41.43000000000001" y="146" width="111.43" height="111.43" as="geometry" />
        </mxCell>
        <mxCell id="GGe_pN6VBzHJLRoy8eTQ-27" style="edgeStyle=orthogonalEdgeStyle;rounded=0;orthogonalLoop=1;jettySize=auto;html=1;exitX=0.5;exitY=0;exitDx=0;exitDy=0;entryX=0.5;entryY=1;entryDx=0;entryDy=0;strokeWidth=3;" parent="J8BOU5IXxztuKc8s6rJS-4" source="GGe_pN6VBzHJLRoy8eTQ-28" target="GGe_pN6VBzHJLRoy8eTQ-26" edge="1">
          <mxGeometry relative="1" as="geometry" />
        </mxCell>
        <mxCell id="GGe_pN6VBzHJLRoy8eTQ-28" value="&lt;font style=&quot;font-size: 20px;&quot;&gt;C Compiler&lt;/font&gt;&lt;div style=&quot;font-size: 20px;&quot;&gt;&lt;font style=&quot;font-size: 20px;&quot;&gt;&amp;amp; Assembler&lt;/font&gt;&lt;/div&gt;" style="rounded=0;whiteSpace=wrap;html=1;strokeWidth=3;container=0;" parent="J8BOU5IXxztuKc8s6rJS-4" vertex="1">
          <mxGeometry x="33.39714285714285" y="306" width="127.49999999999999" height="60.71428571428571" as="geometry" />
        </mxCell>
        <mxCell id="GGe_pN6VBzHJLRoy8eTQ-29" value="&lt;p style=&quot;line-height: 120%;&quot;&gt;&lt;font style=&quot;font-size: 25px;&quot;&gt;HOST&lt;/font&gt;&lt;/p&gt;&lt;p style=&quot;line-height: 120%;&quot;&gt;&lt;font style=&quot;font-size: 25px;&quot;&gt;PC&lt;/font&gt;&lt;/p&gt;" style="text;html=1;align=center;verticalAlign=middle;whiteSpace=wrap;rounded=0;fontStyle=1;container=0;" parent="J8BOU5IXxztuKc8s6rJS-4" vertex="1">
          <mxGeometry x="230" y="420" width="122.15" height="80" as="geometry" />
        </mxCell>
        <mxCell id="J8BOU5IXxztuKc8s6rJS-1" value="&lt;font style=&quot;font-size: 20px;&quot;&gt;Application Code&lt;/font&gt;" style="rounded=0;whiteSpace=wrap;html=1;strokeWidth=3;container=0;" parent="J8BOU5IXxztuKc8s6rJS-4" vertex="1">
          <mxGeometry x="33.39714285714285" y="416" width="127.49999999999999" height="60.71428571428571" as="geometry" />
        </mxCell>
        <mxCell id="J8BOU5IXxztuKc8s6rJS-2" style="edgeStyle=orthogonalEdgeStyle;rounded=0;orthogonalLoop=1;jettySize=auto;html=1;exitX=0.5;exitY=0;exitDx=0;exitDy=0;entryX=0.5;entryY=1;entryDx=0;entryDy=0;strokeWidth=3;" parent="J8BOU5IXxztuKc8s6rJS-4" edge="1">
          <mxGeometry relative="1" as="geometry">
            <mxPoint x="96.98000000000002" y="415.71000000000004" as="sourcePoint" />
            <mxPoint x="96.98000000000002" y="366.71000000000004" as="targetPoint" />
          </mxGeometry>
        </mxCell>
        <mxCell id="i2IiANxSz9852Xo-MV7k-0" value="&lt;font style=&quot;font-size: 20px;&quot;&gt;waddr&lt;/font&gt;" style="text;html=1;align=center;verticalAlign=middle;whiteSpace=wrap;rounded=0;rotation=270;" parent="GGe_pN6VBzHJLRoy8eTQ-1" vertex="1">
          <mxGeometry x="828" y="594" width="60" height="23.61" as="geometry" />
        </mxCell>
        <mxCell id="GGe_pN6VBzHJLRoy8eTQ-11" value="&lt;font style=&quot;font-size: 20px;&quot;&gt;wdata&lt;/font&gt;" style="text;html=1;align=center;verticalAlign=middle;whiteSpace=wrap;rounded=0;rotation=270;" parent="GGe_pN6VBzHJLRoy8eTQ-1" vertex="1">
          <mxGeometry x="857.99" y="594" width="50" height="21.43" as="geometry" />
        </mxCell>
        <mxCell id="i2IiANxSz9852Xo-MV7k-3" style="edgeStyle=orthogonalEdgeStyle;rounded=0;orthogonalLoop=1;jettySize=auto;html=1;exitX=0.265;exitY=1.004;exitDx=0;exitDy=0;entryX=0.25;entryY=0;entryDx=0;entryDy=0;strokeWidth=3;exitPerimeter=0;" parent="GGe_pN6VBzHJLRoy8eTQ-1" edge="1">
          <mxGeometry relative="1" as="geometry">
            <mxPoint x="840.68" y="570.33" as="sourcePoint" />
            <mxPoint x="840.7974999999999" y="750.0000000000001" as="targetPoint" />
            <Array as="points" />
          </mxGeometry>
        </mxCell>
        <mxCell id="i2IiANxSz9852Xo-MV7k-4" style="edgeStyle=orthogonalEdgeStyle;rounded=0;orthogonalLoop=1;jettySize=auto;html=1;exitX=0.265;exitY=1.004;exitDx=0;exitDy=0;entryX=0.25;entryY=0;entryDx=0;entryDy=0;strokeWidth=3;exitPerimeter=0;" parent="GGe_pN6VBzHJLRoy8eTQ-1" edge="1">
          <mxGeometry relative="1" as="geometry">
            <mxPoint x="868" y="570" as="sourcePoint" />
            <mxPoint x="868.1175" y="749.6700000000001" as="targetPoint" />
            <Array as="points" />
          </mxGeometry>
        </mxCell>
        <mxCell id="i2IiANxSz9852Xo-MV7k-6" style="edgeStyle=orthogonalEdgeStyle;rounded=0;orthogonalLoop=1;jettySize=auto;html=1;exitX=0.265;exitY=1.004;exitDx=0;exitDy=0;entryX=0.25;entryY=0;entryDx=0;entryDy=0;strokeWidth=3;exitPerimeter=0;" parent="GGe_pN6VBzHJLRoy8eTQ-1" edge="1">
          <mxGeometry relative="1" as="geometry">
            <mxPoint x="897.5" y="570.33" as="sourcePoint" />
            <mxPoint x="897.6175" y="750.0000000000001" as="targetPoint" />
            <Array as="points" />
          </mxGeometry>
        </mxCell>
        <mxCell id="i2IiANxSz9852Xo-MV7k-7" style="edgeStyle=orthogonalEdgeStyle;rounded=0;orthogonalLoop=1;jettySize=auto;html=1;exitX=0.265;exitY=1.004;exitDx=0;exitDy=0;entryX=0.25;entryY=0;entryDx=0;entryDy=0;strokeWidth=3;exitPerimeter=0;" parent="GGe_pN6VBzHJLRoy8eTQ-1" edge="1">
          <mxGeometry relative="1" as="geometry">
            <mxPoint x="930" y="570.33" as="sourcePoint" />
            <mxPoint x="930.1175" y="750.0000000000001" as="targetPoint" />
            <Array as="points" />
          </mxGeometry>
        </mxCell>
        <mxCell id="i2IiANxSz9852Xo-MV7k-8" value="" style="shape=wire;edgeStyle=orthogonalEdgeStyle;orthogonalLoop=1;jettySize=auto;html=1;sourcePerimeterSpacing=0;targetPerimeterSpacing=0;endArrow=none;curved=0;rounded=0;strokeColor=#000000;dashed=1;fillColor=#0378FF;dashPattern=12 12;fixDash=1;startSize=6;endSize=6;strokeWidth=5;exitX=1;exitY=0.5;exitDx=0;exitDy=0;entryX=0;entryY=0.5;entryDx=0;entryDy=0;" parent="GGe_pN6VBzHJLRoy8eTQ-1" source="GGe_pN6VBzHJLRoy8eTQ-23" target="GGe_pN6VBzHJLRoy8eTQ-9" edge="1">
          <mxGeometry width="100" relative="1" as="geometry">
            <mxPoint x="650" y="490" as="sourcePoint" />
            <mxPoint x="750" y="490" as="targetPoint" />
          </mxGeometry>
        </mxCell>
        <mxCell id="i2IiANxSz9852Xo-MV7k-9" value="" style="shape=waypoint;sketch=0;fillStyle=solid;size=6;pointerEvents=1;points=[];fillColor=none;resizable=0;rotatable=0;perimeter=centerPerimeter;snapToPoint=1;strokeWidth=3;" parent="GGe_pN6VBzHJLRoy8eTQ-1" vertex="1">
          <mxGeometry x="920" y="675" width="20" height="20" as="geometry" />
        </mxCell>
        <mxCell id="i2IiANxSz9852Xo-MV7k-11" value="" style="shape=waypoint;sketch=0;fillStyle=solid;size=6;pointerEvents=1;points=[];fillColor=none;resizable=0;rotatable=0;perimeter=centerPerimeter;snapToPoint=1;strokeWidth=3;" parent="GGe_pN6VBzHJLRoy8eTQ-1" vertex="1">
          <mxGeometry x="858.82" y="694" width="20" height="20" as="geometry" />
        </mxCell>
        <mxCell id="i2IiANxSz9852Xo-MV7k-12" value="" style="shape=waypoint;sketch=0;fillStyle=solid;size=6;pointerEvents=1;points=[];fillColor=none;resizable=0;rotatable=0;perimeter=centerPerimeter;snapToPoint=1;strokeWidth=3;" parent="GGe_pN6VBzHJLRoy8eTQ-1" vertex="1">
          <mxGeometry x="830.82" y="705" width="20" height="20" as="geometry" />
        </mxCell>
        <mxCell id="i2IiANxSz9852Xo-MV7k-13" value="" style="shape=waypoint;sketch=0;fillStyle=solid;size=6;pointerEvents=1;points=[];fillColor=none;resizable=0;rotatable=0;perimeter=centerPerimeter;snapToPoint=1;strokeWidth=3;" parent="GGe_pN6VBzHJLRoy8eTQ-1" vertex="1">
          <mxGeometry x="800" y="714" width="20" height="20" as="geometry" />
        </mxCell>
        <mxCell id="i2IiANxSz9852Xo-MV7k-14" style="edgeStyle=orthogonalEdgeStyle;rounded=0;orthogonalLoop=1;jettySize=auto;html=1;entryX=0.75;entryY=0;entryDx=0;entryDy=0;strokeWidth=3;" parent="GGe_pN6VBzHJLRoy8eTQ-1" source="i2IiANxSz9852Xo-MV7k-9" target="GGe_pN6VBzHJLRoy8eTQ-30" edge="1">
          <mxGeometry relative="1" as="geometry" />
        </mxCell>
        <mxCell id="i2IiANxSz9852Xo-MV7k-10" value="" style="shape=waypoint;sketch=0;fillStyle=solid;size=6;pointerEvents=1;points=[];fillColor=none;resizable=0;rotatable=0;perimeter=centerPerimeter;snapToPoint=1;strokeWidth=3;" parent="GGe_pN6VBzHJLRoy8eTQ-1" vertex="1">
          <mxGeometry x="887.5" y="685" width="20" height="20" as="geometry" />
        </mxCell>
        <mxCell id="i2IiANxSz9852Xo-MV7k-15" style="edgeStyle=orthogonalEdgeStyle;rounded=0;orthogonalLoop=1;jettySize=auto;html=1;entryX=0.621;entryY=-0.008;entryDx=0;entryDy=0;strokeWidth=3;entryPerimeter=0;" parent="GGe_pN6VBzHJLRoy8eTQ-1" source="i2IiANxSz9852Xo-MV7k-10" target="GGe_pN6VBzHJLRoy8eTQ-30" edge="1">
          <mxGeometry relative="1" as="geometry" />
        </mxCell>
        <mxCell id="i2IiANxSz9852Xo-MV7k-16" style="edgeStyle=orthogonalEdgeStyle;rounded=0;orthogonalLoop=1;jettySize=auto;html=1;entryX=0.5;entryY=0;entryDx=0;entryDy=0;strokeWidth=3;" parent="GGe_pN6VBzHJLRoy8eTQ-1" source="i2IiANxSz9852Xo-MV7k-11" target="GGe_pN6VBzHJLRoy8eTQ-30" edge="1">
          <mxGeometry relative="1" as="geometry" />
        </mxCell>
        <mxCell id="i2IiANxSz9852Xo-MV7k-17" style="edgeStyle=orthogonalEdgeStyle;rounded=0;orthogonalLoop=1;jettySize=auto;html=1;entryX=0.386;entryY=0.003;entryDx=0;entryDy=0;entryPerimeter=0;strokeWidth=3;" parent="GGe_pN6VBzHJLRoy8eTQ-1" source="i2IiANxSz9852Xo-MV7k-12" target="GGe_pN6VBzHJLRoy8eTQ-30" edge="1">
          <mxGeometry relative="1" as="geometry" />
        </mxCell>
        <mxCell id="i2IiANxSz9852Xo-MV7k-18" style="edgeStyle=orthogonalEdgeStyle;rounded=0;orthogonalLoop=1;jettySize=auto;html=1;entryX=0.25;entryY=0;entryDx=0;entryDy=0;strokeWidth=3;" parent="GGe_pN6VBzHJLRoy8eTQ-1" source="i2IiANxSz9852Xo-MV7k-13" target="GGe_pN6VBzHJLRoy8eTQ-30" edge="1">
          <mxGeometry relative="1" as="geometry" />
        </mxCell>
      </root>
    </mxGraphModel>
  </diagram>
</mxfile>
